<?xml version="1.0" encoding="UTF-8"?>
<svg id="Layer_1" data-name="Layer 1" xmlns="http://www.w3.org/2000/svg" viewBox="210 220 230 200">
  <defs>
    <style>
      .cls-1 {
        fill: #ff4d0d;
        stroke-width: 0px;
      }
    </style>
  </defs>
  <path class="cls-1" d="M231.15,247.15c34.4,34.8,68.9,69.5,103.3,104.3.7,1,5.4,7.3,13,7.6,1.5,0,6.1.2,9.3-3.1,2.7-2.8,2.8-6.4,2.8-7.6.2-7.4-5.9-12.3-6.8-13-35.2-35.2-70.5-70.3-105.7-105.5-1-.8-3.1-2.5-6.2-3-1-.2-5.7-1-9.6,2.2-3.4,2.8-4,6.7-4.1,8-.5,5.8,3.4,9.6,4,10.2v-.1Z"/>
  <path class="cls-1" d="M321.55,378.15c4.2,3.6,12.7,9.4,24.7,10,19.2.9,31.2-12.4,32.8-14.1,2.8-3.3,10.5-13,10.2-27.4-.3-14.6-8.6-24-10.7-26.3-31.5-31.6-63-63.2-94.5-94.9-1.3-1.1-3.3-2.5-6.2-3-.3,0-.6,0-.7-.1-1.7-.2-5.6-.4-8.9,2.3-3.4,2.7-4,6.6-4.1,8-.5,5.8,3.4,9.6,4,10.2,31.4,31.4,62.9,62.7,94.3,94.1.8,1.2,3.7,5.6,3.2,11.7-.1,1.7-.8,6.4-4.5,10.4-5,5.4-11.6,5.6-13.3,5.6-4.5,0-8.1-1.5-10.3-2.8l.2-.2-94.5-94.9c-1-.8-3.1-2.5-6.2-3-1-.2-5.7-1-9.6,2.2-3.4,2.8-4,6.7-4.1,8-.5,5.8,3.4,9.6,4,10.2,31.4,31.4,62.9,62.7,94.3,94.1l.1-.1h-.2Z"/>
  <path class="cls-1" d="M417.25,343.55c-.5-11.1-3.4-19.3-4.2-21.5-4.4-11.9-11.2-19.7-14.3-23.2-2.5-2.8-4.7-4.9-6.3-6.4-11.2-10.9-22.4-21.8-33.6-32.8-2-1.9-4.1-3.8-6.1-5.8-1.5-1.5-3.1-2.9-4.6-4.4-1.3.4-3.5,1.4-5.6,3.4-.9.9-4.1,4.1-4.5,9-.3,3.7,1,6.4,2.7,10,1.7,3.5,3.7,6.1,5.2,7.7,12.4,12.1,24.8,24.3,37.3,36.4,3,3.9,7.9,11.2,9.9,21.5.6,3.3,4.2,24.1-10.4,40.7-11.5,13-26.6,14.9-30.2,15.2-13,1.3-22.9-3.4-26.3-5.1-4.7-2.3-8.2-4.9-10.6-6.9h0c-22.1-22.4-44.2-44.8-66.3-67.2-1-1-3.1-2.9-6.5-3.7-1.4-.3-6.7-1.3-10.7,2.2-2.8,2.5-3.3,5.9-3.5,7.1-.8,5.8,2.6,10.1,3.3,11.1,22.2,22.1,44.4,44.3,66.6,66.4l.2-.2c2.1,2.1,4.7,4.4,7.7,6.6.7.5,5.1,3.7,10.6,6.4,15.1,7.4,31,7.1,32.8,7.1,9-.3,16.6-2.3,22-4.2,5.5-2,24.8-9.4,36.7-29.9,9.6-16.6,9.1-32.6,8.8-39.5h-.1Z"/>
</svg>
